<?xml version="1.0" encoding="UTF-8"?>
<svg xmlns="http://www.w3.org/2000/svg" xmlns:xlink="http://www.w3.org/1999/xlink" width="964px" height="235px" viewBox="0 0 964 235" version="1.1">
    
    <title>logo/American Well White Copy 3</title>
    <desc>Created with Sketch.</desc>
    <defs>
        <polygon id="path-1" points="0.000221804317 0.176052637 248.919118 0.176052637 248.919118 234.848688 0.000221804317 234.848688"/>
        <linearGradient x1="50%" y1="98.6474892%" x2="50%" y2="0%" id="linearGradient-3">
            <stop stop-color="#EF9C23" offset="0%"/>
            <stop stop-color="#F3AD30" offset="28.2807984%"/>
            <stop stop-color="#F5B838" offset="51.1492955%"/>
            <stop stop-color="#FCD54E" offset="100%"/>
        </linearGradient>
    </defs>
    <g id="All-Content" stroke="none" stroke-width="1" fill="none" fill-rule="evenodd">
        <g id="LogosReversed" transform="translate(-816.000000, -255.000000)">
            <g id="logo/Amwell-color-reversed-" transform="translate(816.000000, 254.000000)">
                <path d="M347.880307,170.078222 C356.067768,170.078222 362.282619,169.640587 366.527365,168.765317 L366.527365,139.354746 C365.064826,138.917111 362.94308,138.479476 360.168391,138.034317 C357.386183,137.597937 354.318235,137.382254 350.955774,137.382254 C348.023177,137.382254 345.061755,137.597937 342.072761,138.034317 C339.068729,138.479476 336.365476,139.28327 333.957989,140.453222 C331.541729,141.629444 329.599196,143.272143 328.142924,145.387587 C326.680385,147.510556 325.948489,150.186524 325.948489,153.400444 C325.948489,159.691603 327.921099,164.045381 331.871333,166.463032 C335.821567,168.873159 341.155385,170.078222 347.880307,170.078222 M345.687125,71.1 C354.461106,71.1 361.846489,72.1972222 367.847034,74.3929206 C373.84006,76.5873651 378.62245,79.6583333 382.214255,83.6095873 C385.791021,87.5633492 388.350151,92.3547619 389.885378,97.9863333 C391.426872,103.616651 392.192606,109.799968 392.192606,116.528762 L392.192606,186.103937 C388.091982,186.979206 381.912222,188.041317 373.653326,189.281492 C365.39443,190.530444 356.067768,191.153667 345.687125,191.153667 C338.81056,191.153667 332.530541,190.494079 326.824508,189.174905 C321.124742,187.862 316.257131,185.737778 312.241729,182.811016 C308.212541,179.884254 305.071904,176.082222 302.807287,171.398651 C300.541417,166.713825 299.408482,160.939302 299.408482,154.060032 C299.408482,147.475444 300.684287,141.916603 303.24467,137.382254 C305.8038,132.849159 309.280307,129.147444 313.667924,126.298429 C318.049274,123.444397 323.13119,121.400429 328.909911,120.151476 C334.681112,118.910048 340.718002,118.286825 347.005541,118.286825 C349.930619,118.286825 352.998567,118.473667 356.218157,118.831048 C359.430229,119.20473 362.870391,119.821683 366.527365,120.696952 L366.527365,116.314333 C366.527365,113.235841 366.161417,110.309079 365.430774,107.534048 C364.698878,104.757762 363.415554,102.303746 361.594586,100.180778 C359.759833,98.0578095 357.351093,96.4151111 354.35458,95.2376349 C351.356813,94.0689365 347.585794,93.4883492 343.055307,93.4883492 C336.918157,93.4883492 331.28356,93.9259841 326.164047,94.801254 C321.045787,95.6827937 316.879995,96.7085397 313.667924,97.8784921 L310.378151,76.3654127 C313.739359,75.1954603 318.637047,74.0267619 325.067456,72.8568095 C331.505385,71.6881111 338.37443,71.1 345.687125,71.1" id="Fill-1" fill="#FFFFFF"/>
                <path d="M661.591154,115.829276 C658.228693,128.705022 654.615583,141.250974 650.736784,153.468387 C646.865505,165.692069 643.036836,177.212276 639.238245,188.03653 L617.45055,188.03653 C614.517953,181.307736 611.442485,173.624672 608.216628,164.988593 C604.997037,156.358784 601.77118,147.140863 598.551589,137.334831 C595.325732,127.536323 592.099875,117.219926 588.880284,106.395672 C585.661946,95.5638947 582.507524,84.5239582 579.430804,73.2545455 L607.519823,73.2545455 C608.847011,79.395228 610.388505,86.0161804 612.144304,93.1186566 C613.908875,100.212355 615.743628,107.457784 617.657336,114.838641 C619.572297,122.234545 621.558693,129.437339 623.615271,136.459561 C625.666836,143.483038 627.730933,149.923418 629.788765,155.770672 C631.981946,149.049403 634.147557,142.098657 636.269304,134.924704 C638.39105,127.758276 640.413791,120.584323 642.313713,113.419149 C644.219901,106.245196 646.019563,99.2580851 647.703927,92.4578153 C649.389544,85.6512756 650.887174,79.2522756 652.206843,73.2545455 L672.6097,73.2545455 C673.921849,79.2522756 675.384388,85.6512756 676.983531,92.4578153 C678.58894,99.2580851 680.303381,106.245196 682.124349,113.419149 C683.952836,120.584323 685.924193,127.758276 688.039674,134.924704 C690.146381,142.098657 692.304472,149.049403 694.491388,155.770672 C696.397576,149.923418 698.383972,143.483038 700.441804,136.459561 C702.499635,129.437339 704.521122,122.234545 706.506265,114.838641 C708.492661,107.457784 710.363758,100.212355 712.127076,93.1186566 C713.884128,86.0161804 715.431888,79.395228 716.759076,73.2545455 L744.181369,73.2545455 C741.105901,84.5239582 737.951479,95.5638947 734.731888,106.395672 C731.51355,117.219926 728.287693,127.536323 725.060583,137.334831 C721.842245,147.140863 718.615135,156.358784 715.389278,164.988593 C712.17094,173.624672 709.022784,181.307736 705.947317,188.03653 L684.367661,188.03653 C680.575336,177.212276 676.667713,165.692069 672.653563,153.468387 C668.631894,141.250974 664.946096,128.705022 661.591154,115.829276" id="Fill-3" fill="#FFFFFF"/>
                <path d="M822.280886,120.043635 C822.280886,116.38581 821.764549,112.906048 820.739393,109.614381 C819.714237,106.32146 818.222873,103.473698 816.24525,101.056048 C814.27264,98.6459206 811.857633,96.7449048 809.010256,95.353 C806.157867,93.9610952 802.759062,93.2663968 798.808828,93.2663968 C794.714471,93.2663968 791.131438,94.0325714 788.062237,95.5674286 C784.986769,97.1035397 782.391295,99.1186667 780.275815,101.607794 C778.154068,104.096921 776.504795,106.944683 775.336769,110.166127 C774.16749,113.386317 773.365412,116.679238 772.928029,120.043635 L822.280886,120.043635 Z M745.290179,131.894889 C745.290179,121.794175 746.781542,112.948683 749.785575,105.338349 C752.782088,97.7280159 756.768666,91.4004921 761.736536,86.3507619 C766.704406,81.3073016 772.411692,77.497746 778.84962,74.9371429 C785.280029,72.3840635 791.862081,71.1 798.587003,71.1 C814.380419,71.1 826.697328,76.0067778 835.551516,85.8052857 C844.391919,95.6113175 848.822146,110.237603 848.822146,129.69919 C848.822146,131.162571 848.779536,132.80527 848.706847,134.63481 C848.635412,136.470619 848.520114,138.113317 848.377244,139.576698 L772.704951,139.576698 C773.436847,148.794619 776.68401,155.924683 782.462731,160.975667 C788.241451,166.017873 796.615646,168.543365 807.584062,168.543365 C814.014471,168.543365 819.900971,167.961524 825.242308,166.785302 C830.576127,165.616603 834.77701,164.375175 837.852477,163.056 L841.359062,184.783508 C839.896523,185.522095 837.888821,186.290778 835.329692,187.093317 C832.769308,187.897111 829.844231,188.628175 826.554458,189.281492 C823.263432,189.941079 819.714237,190.494079 815.914393,190.931714 C812.114549,191.369349 808.23575,191.591302 804.293036,191.591302 C794.199386,191.591302 785.431672,190.085286 777.967334,187.093317 C770.511769,184.095079 764.368354,179.920619 759.542101,174.58373 C754.717101,169.239317 751.132815,162.948159 748.79551,155.70273 C746.459458,148.464825 745.290179,140.530968 745.290179,131.894889 L745.290179,131.894889 Z" id="Fill-5" fill="#FFFFFF"/>
                <path d="M906.270977,191.896814 C898.378029,191.746338 891.832321,190.871068 886.641373,189.263481 C881.451679,187.657147 877.320977,185.347338 874.24551,182.3491 C871.177562,179.350861 869.019471,175.620306 867.78001,171.158687 C866.531776,166.697068 865.915179,161.610973 865.915179,155.900401 L865.915179,23.7810519 L892.456438,19.3909091 L892.456438,150.856941 C892.456438,154.078385 892.707088,156.783195 893.223425,158.978893 C893.732244,161.173338 894.64962,163.037988 895.961769,164.572846 C897.281438,166.108957 899.066062,167.285179 901.338198,168.081449 C903.604068,168.891512 906.494055,169.508465 909.999386,169.9461 L906.270977,191.896814 Z" id="Fill-7" fill="#FFFFFF"/>
                <path d="M960.121424,191.896814 C952.228476,191.746338 945.682768,190.871068 940.49182,189.263481 C935.300872,187.657147 931.171424,185.347338 928.095956,182.3491 C925.028008,179.350861 922.869917,175.620306 921.630456,171.158687 C920.382222,166.697068 919.765625,161.610973 919.765625,155.900401 L919.765625,23.7810519 L946.306885,19.3909091 L946.306885,150.856941 C946.306885,154.078385 946.557534,156.783195 947.073872,158.978893 C947.58269,161.173338 948.500067,163.037988 949.812216,164.572846 C951.131885,166.108957 952.916508,167.285179 955.188644,168.081449 C957.454515,168.891512 960.343248,169.508465 963.849833,169.9461 L960.121424,191.896814 Z" id="Fill-9" fill="#FFFFFF"/>
                <path d="M566.826274,102.376476 C565.578041,95.8708889 563.313424,90.3032698 560.022398,85.6986984 C556.731372,81.0853492 552.200885,77.5065238 546.422164,74.9459206 C540.643443,72.3840635 533.295657,71.1 524.3763,71.1 C520.870969,71.1 517.394463,71.4661587 513.959313,72.1984762 C510.525417,72.9295397 507.270735,73.8474444 504.202787,74.9459206 C501.12732,76.0431429 498.352631,77.2482063 495.864937,78.5611111 C493.527631,79.8000317 491.61643,80.9649683 490.053631,82.0709683 C488.490833,80.9649683 486.580885,79.8000317 484.242326,78.5611111 C481.755885,77.2482063 478.981196,76.0431429 475.905729,74.9459206 C472.836528,73.8474444 469.581846,72.9295397 466.14795,72.1984762 C462.714054,71.4661587 459.236294,71.1 455.730963,71.1 C446.812859,71.1 439.46382,72.3840635 433.685099,74.9459206 C427.906378,77.5065238 423.375891,81.0853492 420.084865,85.6986984 C416.795093,90.3032698 414.529222,95.8708889 413.280989,102.376476 C412.041528,108.889587 411.417411,116.019651 411.417411,123.77419 L411.417411,188.299635 L437.95867,188.299635 L437.95867,127.942381 C437.95867,115.948175 439.427476,107.283254 442.346287,101.938841 C445.278885,96.5944286 450.899696,93.9259841 459.236294,93.9259841 C463.481041,93.9259841 467.502709,94.6219365 471.302554,96.0138413 C473.468164,96.8063492 475.237748,97.5813016 476.786761,98.3487302 L476.786761,124.871413 L476.786761,188.299635 L490.053631,188.299635 L503.320502,188.299635 L503.320502,124.871413 L503.320502,98.3487302 C504.869515,97.5813016 506.640352,96.8063492 508.804709,96.0138413 C512.604554,94.6219365 516.626222,93.9259841 520.870969,93.9259841 C529.20882,93.9259841 534.829631,96.5944286 537.762229,101.938841 C540.679787,107.283254 542.149846,115.948175 542.149846,127.942381 L542.149846,188.299635 L568.689852,188.299635 L568.689852,123.77419 C568.689852,116.019651 568.066989,108.889587 566.826274,102.376476" id="Fill-11" fill="#FFFFFF"/>
                <g id="Group-15" stroke-width="1" transform="translate(0.000000, 0.897344)">
                    <mask id="mask-2" fill="white">
                        <use xlink:href="#path-1"/>
                    </mask>
                    <g id="Clip-14"/>
                    <path d="M124.764975,234.848813 C121.878748,234.848813 118.992521,233.756607 116.776781,231.572194 L84.7864039,200.024861 C80.3110597,195.610892 80.2584234,188.400575 84.6685987,183.923908 C89.0825338,179.442226 96.2824364,179.399591 100.76154,183.806035 L124.7938,207.504781 L210.054683,124.030622 C231.735852,100.8134 231.683216,63.181813 209.901787,40.033559 C200.87841,30.4457177 189.461332,24.6448606 176.881242,23.2617336 C160.581514,21.4610352 144.477294,27.5139399 132.763196,39.8529876 C130.615131,42.1164003 127.633657,43.3992098 124.513073,43.3992098 C121.393742,43.3992098 118.411014,42.1164003 116.261696,39.8529876 C106.738274,29.8187336 94.1694623,23.8473368 80.8787805,23.0447971 C65.3924104,22.0905272 50.1667156,28.302686 39.1293714,40.0310511 C24.3435662,55.7420193 19.0686506,78.743559 25.3561896,100.061019 C27.1358,106.093861 23.6931312,112.425146 17.6662675,114.203273 C11.6406571,115.988924 5.31301429,112.543019 3.5334039,106.510178 C-5.04005714,77.4544796 2.25133247,46.0024479 22.5601961,24.4241622 C38.2345532,7.7576701 60.0535792,-1.05145689 82.2485792,0.319130415 C97.6497286,1.24706692 112.316475,6.95513042 124.506806,16.6169558 C140.110982,4.21771772 159.573904,-1.55806006 179.365177,0.630114542 C197.139975,2.58254311 213.868313,11.0317812 226.468456,24.4241622 C256.402255,56.2348288 256.402255,107.991115 226.470962,139.804289 C226.363183,139.915892 226.254151,140.027495 226.143865,140.139099 L132.723092,231.601035 C130.509858,233.765384 127.636164,234.848813 124.764975,234.848813" id="Fill-13" fill="url(#linearGradient-3)" mask="url(#mask-2)"/>
                </g>
                <path d="M66.5326612,176.915243 C63.3042976,176.915243 60.0796937,175.702656 57.5907456,173.278735 L27.5642066,143.994815 C22.49733,139.051672 22.3920573,130.935989 27.3298495,125.86745 C32.2714015,120.797656 40.3836677,120.696084 45.4480378,125.632957 L66.5088495,146.174211 L139.351311,74.7632273 C144.403148,69.8050369 152.515414,69.8928146 157.465739,74.9488146 C162.417317,80.0023067 162.335856,88.1204972 157.281512,93.0736718 L75.4983885,173.251148 C73.0094404,175.693878 69.7697976,176.915243 66.5326612,176.915243" id="Fill-16" fill="#FFFFFF"/>
            </g>
        </g>
    </g>
</svg>
