<svg width="205" height="41" viewBox="0 0 205 41" fill="none" xmlns="http://www.w3.org/2000/svg">
<g clip-path="url(#clip0)">
<path fill-rule="evenodd" clip-rule="evenodd" d="M35.635 7.914C29.298 0.0999985 18.34 -1.762 9.945 3.107L9.923 3.091L9.887 3.141C9.0141 3.6517 8.18105 4.22768 7.395 4.864C-1.2 11.814 -2.491 24.45 4.511 33.086C10.683 40.698 21.238 42.661 29.539 38.26L29.595 38.297L29.665 38.193C30.7551 37.6043 31.7882 36.9157 32.751 36.136C41.346 29.186 42.637 16.55 35.635 7.914V7.914ZM3.89 13.376L3.896 13.362C7.028 16.574 9.804 20.548 12.221 25.286L12.448 25.726C15.122 30.874 18.118 34.998 21.44 38.096C18.5917 38.2989 15.7365 37.8105 13.1175 36.6725C10.4986 35.5345 8.1933 33.7806 6.398 31.56C4.35495 29.0493 3.04062 26.0257 2.59835 22.8191C2.15609 19.6125 2.60288 16.346 3.89 13.376V13.376ZM6.567 9.07L6.491 9.16C5.7077 10.0979 5.02559 11.1159 4.456 12.197C7.692 15.442 10.554 19.452 13.044 24.224L13.309 24.739C16.189 30.381 19.437 34.769 23.05 37.906C24.5377 37.6625 25.9875 37.2268 27.363 36.61C23.676 33.515 20.403 29.171 17.535 23.585L17.317 23.155C14.328 17.224 10.744 12.53 6.567 9.07ZM10.808 5.433L10.897 5.379C15.095 8.843 18.697 13.55 21.697 19.506L21.915 19.936C24.906 25.765 28.342 30.241 32.226 33.357C31.1222 34.3969 29.8894 35.2909 28.558 36.017C24.748 32.947 21.362 28.48 18.406 22.613L18.173 22.155C15.169 16.313 11.573 11.649 7.386 8.168C8.40878 7.11789 9.55828 6.19916 10.808 5.433V5.433ZM16.71 3.16L16.46 3.209C14.9232 3.51992 13.4354 4.03693 12.037 4.746C16.109 8.2 19.614 12.789 22.554 18.504L22.787 18.962C25.781 24.906 29.217 29.412 33.087 32.486C34.1125 31.3754 34.9886 30.1356 35.693 28.798C32.347 25.941 29.39 21.986 26.818 16.938C26.087 17.128 25.3135 17.0696 24.6192 16.7721C23.925 16.4746 23.3492 15.9549 22.9825 15.2945C22.6158 14.6342 22.479 13.8707 22.5935 13.1241C22.708 12.3775 23.0673 11.6901 23.615 11.17C21.565 7.997 19.264 5.328 16.71 3.16V3.16ZM18.3 2.937C21.2119 2.66217 24.1465 3.11215 26.8423 4.24681C29.538 5.38147 31.9111 7.16555 33.75 9.44C35.7975 11.9564 37.113 14.9878 37.5522 18.2021C37.9914 21.4164 37.5374 24.6896 36.24 27.663C33.132 24.943 30.358 21.198 27.923 16.426C28.6118 15.9425 29.0972 15.2211 29.2856 14.4009C29.4741 13.5807 29.3522 12.7198 28.9435 11.9842C28.5348 11.2485 27.8682 10.6902 27.0723 10.4169C26.2764 10.1436 25.4074 10.1746 24.633 10.504C22.736 7.57 20.625 5.048 18.3 2.937V2.937ZM67.125 8.091C68.833 8.091 69.955 8.694 70.784 9.561C71.54 10.373 71.979 11.251 71.979 12.773C71.979 14.305 71.516 15.402 70.704 16.33L70.638 16.405C70.369 16.719 69.833 17.06 69.394 17.165C70.418 17.297 71.296 17.847 71.93 18.529C72.735 19.395 73.15 21.297 73.15 22.871C73.15 24.576 72.686 26.4 71.784 27.37C70.997 28.241 69.744 28.787 68.094 28.812H56.147V8.093H67.127L67.125 8.091ZM106.914 28.813V8.09H105.214V17.913C105.083 17.7278 104.941 17.5507 104.789 17.383C103.627 16.111 101.783 15.319 99.187 15.319C96.522 15.319 94.655 16.159 93.471 17.503C92.378 18.728 91.854 20.385 91.854 22.186C91.854 24.202 92.424 25.763 93.425 26.916C94.7 28.332 96.659 29.053 99.141 29.053C101.646 29.053 103.582 28.284 104.834 26.892C104.969 26.74 105.096 26.582 105.214 26.416V28.812H106.914V28.813ZM151.054 17.638C151.619 15.572 154.475 14.607 158.195 14.865C161.372 15.086 163.263 16.116 163.85 17.937C164.028 18.474 164.071 19.019 164.038 19.681L164.031 19.806L164.004 20.219L160.523 19.977L160.547 19.624C160.57 19.182 160.544 18.814 160.441 18.584C160.214 18.095 159.19 17.658 157.953 17.572C156.49 17.47 154.979 17.772 154.709 18.185C154.286 18.834 154.467 20.032 155.32 20.265C156.007 20.4524 156.699 20.6198 157.396 20.767L157.683 20.827L157.434 20.774L157.435 20.768L158.477 21.009C159.882 21.339 160.808 21.576 161.262 21.725L161.332 21.748L161.476 21.798L161.657 21.864C163.193 22.431 163.85 22.989 164.142 24.32L164.158 24.398L164.21 24.673C164.315 25.296 164.273 26.029 164.067 26.737C163.506 28.792 160.525 29.761 156.76 29.499C153.511 29.273 151.379 28.189 150.803 26.406C150.626 25.869 150.583 25.324 150.616 24.662L150.623 24.537L150.65 24.125L154.131 24.366L154.115 24.596C154.08 25.093 154.101 25.508 154.213 25.76C154.428 26.223 155.664 26.7 156.951 26.789C158.455 26.893 160.151 26.591 160.413 26.19C160.836 25.542 160.654 24.344 159.802 24.112C159.115 23.9243 158.423 23.7565 157.726 23.609L157.439 23.549L157.687 23.601V23.607L156.873 23.42L156.264 23.277C155.517 23.106 154.774 22.9156 154.036 22.706L153.899 22.663L153.79 22.627L153.602 22.561C151.918 21.958 151.22 21.378 150.953 19.924L150.938 19.844L150.911 19.702C150.806 19.08 150.848 18.347 151.054 17.638V17.638ZM108.857 15.56H110.841L113.964 22.466C114.996 24.754 115.886 26.736 115.886 26.766C115.886 26.742 116.433 25.514 117.166 23.879L120.907 15.56H122.946L114.931 32.909H112.996L114.882 28.734L108.857 15.56V15.56ZM186.54 17.384C185.301 16.112 183.334 15.32 180.565 15.32C177.723 15.32 175.731 16.16 174.468 17.504C173.302 18.729 172.743 20.386 172.743 22.187C172.743 24.203 173.35 25.764 174.419 26.917C175.779 28.333 177.868 29.054 180.516 29.054C183.188 29.054 185.253 28.285 186.589 26.893C187.706 25.716 188.289 24.107 188.289 22.187C188.289 20.314 187.73 18.609 186.54 17.384ZM82.669 15.32C85.265 15.32 87.109 16.112 88.271 17.384C89.387 18.609 89.911 20.314 89.911 22.187C89.911 24.107 89.364 25.717 88.316 26.893C87.064 28.285 85.128 29.053 82.623 29.053C80.141 29.053 78.183 28.333 76.907 26.917C75.905 25.764 75.336 24.203 75.336 22.187C75.336 20.386 75.86 18.729 76.953 17.504C78.137 16.16 80.004 15.32 82.669 15.32V15.32ZM132.371 24.582L126.93 8.092H122.46L129.748 28.812H134.8L142.136 8.092H137.812L132.371 24.582ZM147.723 15.56V28.813H143.594V15.56H147.723ZM204.248 20.262C204.217 16.99 202.676 15.32 199.129 15.32C197.057 15.32 195.058 15.992 194.278 17.528V15.608H190.475V28.813H194.4V21.346L194.401 21.268C194.446 19.59 195.937 18.728 197.618 18.728C199.446 18.728 200.299 19.713 200.299 21.37V23.82L200.305 26.304C200.316 28.601 200.353 28.807 200.465 28.813H204.321L204.318 28.811C204.281 28.773 204.259 28.331 204.251 24.262L204.248 20.262V20.262ZM170.8 15.56V28.813H166.67V15.56H170.8ZM78.349 18.728C79.231 17.727 80.635 17.167 82.669 17.167C84.657 17.167 86.045 17.699 86.889 18.623C87.636 19.443 88.047 20.679 88.047 22.187C88.047 23.677 87.649 24.851 86.919 25.671C86.035 26.654 84.594 27.207 82.623 27.207C80.625 27.207 79.183 26.669 78.298 25.687C77.591 24.874 77.2 23.723 77.2 22.187C77.2 20.761 77.605 19.562 78.349 18.728V18.728ZM99.187 17.167C97.153 17.167 95.749 17.727 94.867 18.728C94.122 19.562 93.717 20.761 93.717 22.187C93.717 23.723 94.109 24.874 94.816 25.687C95.7 26.669 97.143 27.207 99.141 27.207C101.112 27.207 102.553 26.654 103.437 25.671C104.167 24.851 104.565 23.677 104.565 22.187C104.565 20.679 104.154 19.444 103.406 18.623C102.563 17.699 101.174 17.167 99.186 17.167H99.187ZM58.073 18.346H67.808C68.784 18.346 69.564 18.686 70.125 19.264L70.179 19.318C70.871 20.048 71.149 21.538 71.149 22.74C71.149 23.973 70.857 25.403 70.223 26.032C69.613 26.609 68.783 26.898 67.76 26.898H58.073V18.346V18.346ZM180.565 18.633C179.034 18.633 177.99 19.113 177.358 19.93C176.872 20.53 176.654 21.322 176.654 22.21C176.654 23.243 176.872 24.035 177.285 24.588C177.941 25.476 179.059 25.836 180.565 25.836C181.938 25.836 183.058 25.448 183.721 24.628L183.771 24.564C184.233 23.987 184.475 23.195 184.475 22.211C184.475 21.202 184.281 20.338 183.747 19.714C183.139 19.041 182.143 18.633 180.565 18.633V18.633ZM58.073 9.98H66.808C67.735 9.98 68.491 10.268 69.052 10.845L69.102 10.895C69.635 11.435 69.979 12.072 69.979 13.166C69.979 14.54 69.581 15.188 69.016 15.79L68.876 15.937C68.6956 16.1208 68.4799 16.2663 68.2419 16.3647C68.0039 16.4632 67.7485 16.5126 67.491 16.51H58.073V9.98V9.98ZM145.901 9.055C147.042 9.055 147.966 9.972 147.966 11.103C147.965 11.3731 147.911 11.6403 147.806 11.8894C147.702 12.1385 147.55 12.3646 147.358 12.5548C147.166 12.745 146.939 12.8956 146.689 12.9978C146.439 13.1001 146.171 13.1522 145.901 13.151C145.631 13.1521 145.363 13.0999 145.114 12.9976C144.864 12.8952 144.637 12.7446 144.445 12.5545C144.253 12.3643 144.101 12.1382 143.997 11.8892C143.892 11.6401 143.838 11.373 143.837 11.103C143.837 9.972 144.761 9.055 145.901 9.055ZM170.8 11.103C170.798 10.5576 170.579 10.0355 170.192 9.65146C169.804 9.26742 169.28 9.05287 168.735 9.055C167.595 9.055 166.67 9.972 166.67 11.103C166.67 12.234 167.595 13.151 168.735 13.151C169.875 13.151 170.8 12.234 170.8 11.103Z" fill="black"/>
</g>
<defs>
<clipPath id="clip0">
<rect width="205" height="41" fill="white"/>
</clipPath>
</defs>
</svg>
