<svg xmlns="http://www.w3.org/2000/svg" viewBox="0 0 449.55 147.7"><defs><style>.cls-1{fill:#1a1a1a;}.cls-2{fill:#e82c2a;}.cls-3{fill:#0076be;}</style></defs><title>Asset 1</title><g id="Layer_2" data-name="Layer 2"><g id="Layer_1-2" data-name="Layer 1"><path class="cls-1" d="M20.51,132.83h-.17L9.63,117.11v23.78H6.4v-29.4H9.76l10.71,16,10.71-16h3.36v29.4H31.22V117.07Z"/><path class="cls-1" d="M51.89,138.58a9,9,0,0,0,6.84-3.07l2,1.81a11.2,11.2,0,0,1-9,4.07c-6,0-10.84-4.57-10.84-11.34,0-6.3,4.41-11.34,10.42-11.34,6.43,0,10.12,5.13,10.12,11.51a9.32,9.32,0,0,1,0,1H44.24C44.7,135.93,48.06,138.58,51.89,138.58Zm6.34-9.75c-.34-3.94-2.61-7.39-6.93-7.39-3.78,0-6.64,3.15-7.06,7.39Z"/><path class="cls-1" d="M84.6,140.89v-4.37c-1.76,2.61-4.32,4.83-8.31,4.83-5.21,0-10.38-4.11-10.38-11.3s5.17-11.34,10.38-11.34a9.8,9.8,0,0,1,8.31,4.62v-13.1h3.24v30.66Zm-7.73-19.28c-4.2,0-7.64,3.11-7.64,8.4s3.53,8.44,7.64,8.44a8.44,8.44,0,0,0,0-16.84Z"/><path class="cls-1" d="M95.14,114.43v-3.57h3.7v3.57Zm.21,26.46V119.17h3.24v21.72Z"/><path class="cls-1" d="M115.89,141.39a11.34,11.34,0,1,1,8.7-18.81l-2.15,2.26c-1.72-1.8-3.65-3.27-6.59-3.27-4.41,0-7.77,3.74-7.77,8.44s3.44,8.49,8,8.49a9,9,0,0,0,6.64-3.24l2.06,1.93A11.19,11.19,0,0,1,115.89,141.39Z"/><path class="cls-1" d="M131.35,123.33l-1-2.64a17.83,17.83,0,0,1,7.9-1.81c5.92,0,9.24,3,9.24,8.74v13.27h-3.11v-3.28a9.5,9.5,0,0,1-7.86,3.74c-4,0-8.1-2.27-8.1-6.8s3.78-7.06,9.28-7.06a23.29,23.29,0,0,1,6.68.92v-.75c0-3.91-2.39-5.92-6.47-5.92A15.14,15.14,0,0,0,131.35,123.33Zm.37,11.09c0,2.77,2.52,4.37,5.46,4.37,4,0,7.27-2.44,7.27-5.88v-2.1a22.67,22.67,0,0,0-6.38-.93C134,129.88,131.72,131.65,131.72,134.42Z"/><path class="cls-1" d="M154.7,140.89V110.23h3.23v30.66Z"/><path class="cls-1" d="M189.73,140.89h-3.36V114.55h-9.88v-3.06H199.6v3.06h-9.87Z"/><path class="cls-1" d="M209.5,138.58a9,9,0,0,0,6.85-3.07l2,1.81a11.18,11.18,0,0,1-8.94,4.07c-6,0-10.84-4.57-10.84-11.34,0-6.3,4.41-11.34,10.42-11.34,6.42,0,10.12,5.13,10.12,11.51a9.32,9.32,0,0,1,0,1H201.85C202.32,135.93,205.68,138.58,209.5,138.58Zm6.34-9.75c-.33-3.94-2.6-7.39-6.93-7.39-3.78,0-6.64,3.15-7.06,7.39Z"/><path class="cls-1" d="M234.57,141.39a11.34,11.34,0,1,1,8.7-18.81l-2.14,2.26c-1.73-1.8-3.66-3.27-6.6-3.27-4.41,0-7.77,3.74-7.77,8.44s3.44,8.49,8,8.49a9,9,0,0,0,6.64-3.24l2.06,1.93A11.19,11.19,0,0,1,234.57,141.39Z"/><path class="cls-1" d="M252,140.89h-3.23V110.23H252V123a8.23,8.23,0,0,1,7.44-4.24c5.25,0,8.31,3.53,8.31,8.7v13.48h-3.23V128.2c0-4-2.18-6.55-6-6.55s-6.51,2.73-6.51,6.81Z"/><path class="cls-1" d="M277.87,140.89h-3.23V119.17h3.23V123a8.23,8.23,0,0,1,7.44-4.24c5.25,0,8.32,3.53,8.32,8.7v13.48h-3.24V128.2c0-4-2.18-6.55-6-6.55s-6.52,2.73-6.52,6.81Z"/><path class="cls-1" d="M310.43,141.39a11.13,11.13,0,0,1-11.26-11.3,11.32,11.32,0,1,1,11.26,11.3Zm0-19.82c-4.71,0-7.94,3.74-7.94,8.44s3.44,8.49,8,8.49,8-3.74,8-8.41A8.2,8.2,0,0,0,310.43,121.57Z"/><path class="cls-1" d="M327.94,140.89V110.23h3.23v30.66Z"/><path class="cls-1" d="M348.6,141.39a11.13,11.13,0,0,1-11.26-11.3,11.33,11.33,0,1,1,11.26,11.3Zm0-19.82c-4.7,0-7.94,3.74-7.94,8.44a8.16,8.16,0,0,0,8,8.49c4.7,0,8-3.74,8-8.41A8.2,8.2,0,0,0,348.6,121.57Z"/><path class="cls-1" d="M375.44,147.7a17,17,0,0,1-9.87-3l1.47-2.52a13.85,13.85,0,0,0,8.36,2.77c4.79,0,7.9-2.64,7.9-7.73v-2.56a10.32,10.32,0,0,1-8.53,4.58,10.25,10.25,0,0,1,0-20.5,10.18,10.18,0,0,1,8.48,4.37v-3.91h3.24v17.94C386.49,144.13,382.12,147.7,375.44,147.7Zm0-26.13a7.16,7.16,0,0,0-7.52,7.35,7.33,7.33,0,0,0,7.52,7.43c4.11,0,8-2.94,8-7.39S379.51,121.57,375.4,121.57Z"/><path class="cls-1" d="M393.79,114.43v-3.57h3.7v3.57Zm.21,26.46V119.17h3.24v21.72Z"/><path class="cls-1" d="M414.33,138.58a9,9,0,0,0,6.85-3.07l2,1.81a11.18,11.18,0,0,1-8.94,4.07c-6,0-10.84-4.57-10.84-11.34,0-6.3,4.41-11.34,10.42-11.34,6.42,0,10.12,5.13,10.12,11.51a9.32,9.32,0,0,1,0,1H406.69C407.15,135.93,410.51,138.58,414.33,138.58Zm6.34-9.75c-.33-3.94-2.6-7.39-6.93-7.39-3.78,0-6.63,3.15-7.05,7.39Z"/><path class="cls-1" d="M436.8,141.31a15,15,0,0,1-9-3.19l1.64-2.31a12.72,12.72,0,0,0,7.52,2.77c2.6,0,4.49-1.34,4.49-3.44v-.09c0-2.18-2.56-3-5.42-3.82-3.4-1-7.18-2.14-7.18-6.13V125c0-3.74,3.11-6.21,7.39-6.21a14.87,14.87,0,0,1,7.82,2.39l-1.47,2.44a12.23,12.23,0,0,0-6.43-2.1c-2.56,0-4.2,1.34-4.2,3.15v.08c0,2.06,2.69,2.86,5.59,3.74,3.36,1,7,2.31,7,6.22v.08C444.53,138.92,441.13,141.31,436.8,141.31Z"/><path class="cls-2" d="M211.85,91.05a2.77,2.77,0,0,0,1.58-.65l5.35-4-8.14-.15-.13,2.59C210.43,90.25,211,91.05,211.85,91.05Zm232.51-.34L223.29,86.48l-1,.75-7.2,5.39a5.4,5.4,0,0,1-3.24,1.2A3.94,3.94,0,0,1,209,92.59a5,5,0,0,1-1.22-3.9l.12-2.51L5.23,82.3A4.47,4.47,0,0,0,.82,86.13l-.79,7c-.26,2.15,1.29,4.44,3.46,4.44H443.87a4.32,4.32,0,0,0,4.18-3.4C448.18,92.61,446.52,90.75,444.36,90.71Z"/><path class="cls-1" d="M14.73,67.58c1-28,2-47,3.14-67h-11c-.34,29-.9,48-3.25,75H48.13l.45-8c-2.24.11-6.85,0-14,0ZM82.5,18A81.27,81.27,0,0,0,61.78,21l-1,7.28a51.86,51.86,0,0,1,20.5-4.37c5.27,0,12.88,1.23,12.88,8,0,15.12-40.66,6.16-40.66,29.46,0,13,12.1,14.68,20.28,14.68a60.14,60.14,0,0,0,11-1.13l1.79-6.72a36.56,36.56,0,0,1-11.54,2c-5.71,0-12.55-2-12.55-9C62.45,48,87,49.94,94.15,42.66c-.55,11-.89,23.92-2,32.92H102c0-13,1.68-34.48,1.68-42.78C103.68,25.63,101,18,82.5,18Zm99.16,0C173,18,166,21.51,162.17,29.35,160,21.29,153.21,18,145.37,18c-8.18,0-15.13,4-18.71,11l-.23.38.56-9.82h-9.3c-.11,17-.89,38-2.46,56h9.86c.67-24,.67-34.37,3.58-40.42,3.7-7.73,10.09-9.4,13.33-9.4,7.73,0,11.21,4.57,11.21,12,0,12.43-1.12,24.85-1.79,37.85h9.85c.68-24,.68-34.37,3.59-40.42,3.7-7.73,10.08-9.4,13.33-9.4,7.73,0,11.2,4.57,11.2,12,0,12.43-1.12,24.85-1.79,37.85H197c.23-23,1.9-35.61,1.9-42C198.91,23.17,191.41,18,181.66,18ZM271,18c-9.86,0-17.7,2.91-22.18,11.76l-.22.38.67-10.6H239.6c-.23,19-1.46,37-2.81,56h10c.1-6,.1-24.85,2.24-34.71,2-9.19,8.95-15.11,18.37-15.11,9.18,0,15,4,15,13.54,0,9.74-1.35,29.28-1.79,36.28h9.74c.12-9,1.57-35.83,1.57-39.75C291.91,22.83,282.72,18,271,18Zm58.93,0A81.27,81.27,0,0,0,309.17,21l-1,7.28a51.87,51.87,0,0,1,20.51-4.37c5.26,0,12.88,1.23,12.88,8,0,15.12-40.67,6.16-40.67,29.46,0,13,12.1,14.68,20.28,14.68a59.85,59.85,0,0,0,11-1.13l1.8-6.72a36.52,36.52,0,0,1-11.54,2c-5.71,0-12.55-2-12.55-9,0-13.22,24.54-11.23,31.71-18.51-.56,11-.9,23.92-2,32.92h9.86c0-13,1.68-34.48,1.68-42.78C351.07,25.63,348.38,18,329.89,18ZM377.62,7.33l-8.84,2-.56,10.27h-7.51l-.22,7h7.28c-.45,12-1.79,30-1.79,36.23,0,9.74,4.37,13.24,13.66,13.24A45.87,45.87,0,0,0,390,74.66l1.23-7.53a32.76,32.76,0,0,1-8.85,1.33c-6.05,0-6.83-4.08-6.83-9.34,0-7.06.9-21.54,1.34-32.54h15.24l.22-7H377.18Zm71.6,39.25a52.35,52.35,0,0,0,.33-5.42c0-15.24-9.41-22.93-24.09-22.93-18,0-27.67,13-27.67,30.15,0,13.67,5.83,27.62,28.8,27.62a67.1,67.1,0,0,0,16.91-2.26l1.57-8.19C439.7,67.34,433.93,69,428.32,69c-12.65,0-20.44-7.17-20.44-20.05V46.58ZM426.36,24.45c10,0,14.23,7.13,14.23,16.13H408C409.67,30.58,416.17,24.45,426.36,24.45Z"/><path class="cls-3" d="M213.68,23.05l-3.17,65.7c-.08,1.43.46,2.26,1.34,2.26a2.73,2.73,0,0,0,1.58-.63l7.2-5.53C220.74,66.36,222.45,38,223.8,19h-6A4.26,4.26,0,0,0,213.68,23.05Zm.37-23-.13,9h10.53l.13-9Z"/></g></g></svg>