<svg width="122" height="10" viewBox="0 0 122 10" fill="none" xmlns="http://www.w3.org/2000/svg">
<path d="M6.55 5.724L5.494 2.838C5.442 2.71 5.388 2.558 5.332 2.382C5.276 2.206 5.22 2.016 5.164 1.812C5.112 2.016 5.058 2.208 5.002 2.388C4.946 2.564 4.892 2.718 4.84 2.85L3.79 5.724H6.55ZM9.4 9H8.152C8.012 9 7.898 8.966 7.81 8.898C7.722 8.826 7.656 8.738 7.612 8.634L6.964 6.864H3.37L2.722 8.634C2.69 8.726 2.628 8.81 2.536 8.886C2.444 8.962 2.33 9 2.194 9H0.934L4.348 0.323999H5.992L9.4 9ZM11.912 3.96H12.29C12.442 3.96 12.568 3.94 12.668 3.9C12.768 3.856 12.854 3.788 12.926 3.696L15.32 0.666C15.42 0.537999 15.524 0.449999 15.632 0.401999C15.744 0.349999 15.884 0.323999 16.052 0.323999H17.444L14.522 3.93C14.35 4.15 14.172 4.306 13.988 4.398C14.12 4.446 14.238 4.514 14.342 4.602C14.45 4.686 14.552 4.798 14.648 4.938L17.66 9H16.238C16.046 9 15.902 8.974 15.806 8.922C15.714 8.866 15.636 8.786 15.572 8.682L13.118 5.478C13.042 5.37 12.954 5.294 12.854 5.25C12.754 5.206 12.61 5.184 12.422 5.184H11.912V9H10.298V0.323999H11.912V3.96ZM20.1446 9H18.5246V0.323999H20.1446V9ZM27.1691 7.668V9H22.0871V0.323999H23.7011V7.668H27.1691ZM29.9415 9H28.3215V0.323999H29.9415V9ZM36.468 5.724L35.412 2.838C35.36 2.71 35.306 2.558 35.25 2.382C35.194 2.206 35.138 2.016 35.082 1.812C35.03 2.016 34.976 2.208 34.92 2.388C34.864 2.564 34.81 2.718 34.758 2.85L33.708 5.724H36.468ZM39.318 9H38.07C37.93 9 37.816 8.966 37.728 8.898C37.64 8.826 37.574 8.738 37.53 8.634L36.882 6.864H33.288L32.64 8.634C32.608 8.726 32.546 8.81 32.454 8.886C32.362 8.962 32.248 9 32.112 9H30.852L34.266 0.323999H35.91L39.318 9ZM45.9563 4.86C46.2883 4.86 46.5803 4.816 46.8323 4.728C47.0883 4.64 47.3023 4.518 47.4743 4.362C47.6503 4.202 47.7823 4.012 47.8703 3.792C47.9583 3.572 48.0023 3.33 48.0023 3.066C48.0023 2.518 47.8323 2.09 47.4923 1.782C47.1563 1.474 46.6443 1.32 45.9563 1.32H44.5763V4.86H45.9563ZM45.9563 0.401999C46.5003 0.401999 46.9723 0.466 47.3723 0.594C47.7763 0.717999 48.1103 0.895999 48.3743 1.128C48.6383 1.36 48.8343 1.64 48.9623 1.968C49.0943 2.296 49.1603 2.662 49.1603 3.066C49.1603 3.466 49.0903 3.832 48.9503 4.164C48.8103 4.496 48.6043 4.782 48.3323 5.022C48.0643 5.262 47.7303 5.45 47.3303 5.586C46.9343 5.718 46.4763 5.784 45.9563 5.784H44.5763V9H43.4183V0.401999H45.9563ZM54.5937 5.808L53.2437 2.31C53.2037 2.206 53.1617 2.086 53.1177 1.95C53.0737 1.81 53.0317 1.662 52.9917 1.506C52.9077 1.83 52.8217 2.1 52.7337 2.316L51.3837 5.808H54.5937ZM57.0177 9H56.1177C56.0137 9 55.9297 8.974 55.8657 8.922C55.8017 8.87 55.7537 8.804 55.7217 8.724L54.9177 6.648H51.0597L50.2557 8.724C50.2317 8.796 50.1857 8.86 50.1177 8.916C50.0497 8.972 49.9657 9 49.8657 9H48.9657L52.4037 0.401999H53.5797L57.0177 9ZM60.5308 4.566C60.8668 4.566 61.1628 4.526 61.4188 4.446C61.6788 4.362 61.8948 4.246 62.0668 4.098C62.2428 3.946 62.3748 3.766 62.4628 3.558C62.5508 3.35 62.5948 3.12 62.5948 2.868C62.5948 2.356 62.4268 1.97 62.0908 1.71C61.7548 1.45 61.2508 1.32 60.5788 1.32H59.3068V4.566H60.5308ZM64.5028 9H63.4708C63.2588 9 63.1028 8.918 63.0028 8.754L60.7708 5.682C60.7028 5.586 60.6288 5.518 60.5488 5.478C60.4728 5.434 60.3528 5.412 60.1888 5.412H59.3068V9H58.1488V0.401999H60.5788C61.1228 0.401999 61.5928 0.457999 61.9888 0.569999C62.3848 0.678 62.7108 0.836 62.9668 1.044C63.2268 1.252 63.4188 1.504 63.5428 1.8C63.6668 2.092 63.7288 2.42 63.7288 2.784C63.7288 3.088 63.6808 3.372 63.5848 3.636C63.4888 3.9 63.3488 4.138 63.1648 4.35C62.9848 4.558 62.7628 4.736 62.4988 4.884C62.2388 5.032 61.9428 5.144 61.6108 5.22C61.7588 5.304 61.8868 5.426 61.9948 5.586L64.5028 9ZM71.205 1.38H68.421V9H67.263V1.38H64.473V0.401999H71.205V1.38ZM79.4468 0.401999V9H78.8648C78.7728 9 78.6948 8.984 78.6308 8.952C78.5708 8.92 78.5108 8.866 78.4508 8.79L73.4768 2.31C73.4848 2.41 73.4908 2.508 73.4948 2.604C73.4988 2.7 73.5008 2.79 73.5008 2.874V9H72.4808V0.401999H73.0808C73.1328 0.401999 73.1768 0.405999 73.2128 0.413999C73.2488 0.418 73.2808 0.427999 73.3088 0.443999C73.3368 0.455999 73.3648 0.476 73.3928 0.504C73.4208 0.528 73.4508 0.559999 73.4828 0.599999L78.4568 7.074C78.4488 6.97 78.4408 6.87 78.4328 6.774C78.4288 6.674 78.4268 6.58 78.4268 6.492V0.401999H79.4468ZM86.9489 8.052L86.9429 9H81.6449V0.401999H86.9429V1.35H82.8089V4.206H86.1569V5.118H82.8089V8.052H86.9489ZM90.9527 4.566C91.2887 4.566 91.5847 4.526 91.8407 4.446C92.1007 4.362 92.3167 4.246 92.4887 4.098C92.6647 3.946 92.7967 3.766 92.8847 3.558C92.9727 3.35 93.0167 3.12 93.0167 2.868C93.0167 2.356 92.8487 1.97 92.5127 1.71C92.1767 1.45 91.6727 1.32 91.0007 1.32H89.7287V4.566H90.9527ZM94.9247 9H93.8927C93.6807 9 93.5247 8.918 93.4247 8.754L91.1927 5.682C91.1247 5.586 91.0507 5.518 90.9707 5.478C90.8947 5.434 90.7747 5.412 90.6107 5.412H89.7287V9H88.5707V0.401999H91.0007C91.5447 0.401999 92.0147 0.457999 92.4107 0.569999C92.8067 0.678 93.1327 0.836 93.3887 1.044C93.6487 1.252 93.8407 1.504 93.9647 1.8C94.0887 2.092 94.1507 2.42 94.1507 2.784C94.1507 3.088 94.1027 3.372 94.0067 3.636C93.9107 3.9 93.7707 4.138 93.5867 4.35C93.4067 4.558 93.1847 4.736 92.9207 4.884C92.6607 5.032 92.3647 5.144 92.0327 5.22C92.1807 5.304 92.3087 5.426 92.4167 5.586L94.9247 9ZM100.492 1.746C100.456 1.806 100.416 1.852 100.372 1.884C100.332 1.912 100.282 1.926 100.222 1.926C100.154 1.926 100.074 1.892 99.9821 1.824C99.8901 1.756 99.7741 1.682 99.6341 1.602C99.4981 1.518 99.3321 1.442 99.1361 1.374C98.9441 1.306 98.7101 1.272 98.4341 1.272C98.1741 1.272 97.9441 1.308 97.7441 1.38C97.5481 1.448 97.3821 1.542 97.2461 1.662C97.1141 1.782 97.0141 1.924 96.9461 2.088C96.8781 2.248 96.8441 2.422 96.8441 2.61C96.8441 2.85 96.9021 3.05 97.0181 3.21C97.1381 3.366 97.2941 3.5 97.4861 3.612C97.6821 3.724 97.9021 3.822 98.1461 3.906C98.3941 3.986 98.6461 4.07 98.9021 4.158C99.1621 4.246 99.4141 4.346 99.6581 4.458C99.9061 4.566 100.126 4.704 100.318 4.872C100.514 5.04 100.67 5.246 100.786 5.49C100.906 5.734 100.966 6.034 100.966 6.39C100.966 6.766 100.902 7.12 100.774 7.452C100.646 7.78 100.458 8.066 100.21 8.31C99.9661 8.554 99.6641 8.746 99.3041 8.886C98.9481 9.026 98.5421 9.096 98.0861 9.096C97.5261 9.096 97.0181 8.996 96.5621 8.796C96.1061 8.592 95.7161 8.318 95.3921 7.974L95.7281 7.422C95.7601 7.378 95.7981 7.342 95.8421 7.314C95.8901 7.282 95.9421 7.266 95.9981 7.266C96.0501 7.266 96.1081 7.288 96.1721 7.332C96.2401 7.372 96.3161 7.424 96.4001 7.488C96.4841 7.552 96.5801 7.622 96.6881 7.698C96.7961 7.774 96.9181 7.844 97.0541 7.908C97.1941 7.972 97.3521 8.026 97.5281 8.07C97.7041 8.11 97.9021 8.13 98.1221 8.13C98.3981 8.13 98.6441 8.092 98.8601 8.016C99.0761 7.94 99.2581 7.834 99.4061 7.698C99.5581 7.558 99.6741 7.392 99.7541 7.2C99.8341 7.008 99.8741 6.794 99.8741 6.558C99.8741 6.298 99.8141 6.086 99.6941 5.922C99.5781 5.754 99.4241 5.614 99.2321 5.502C99.0401 5.39 98.8201 5.296 98.5721 5.22C98.3241 5.14 98.0721 5.06 97.8161 4.98C97.5601 4.896 97.3081 4.8 97.0601 4.692C96.8121 4.584 96.5921 4.444 96.4001 4.272C96.2081 4.1 96.0521 3.886 95.9321 3.63C95.8161 3.37 95.7581 3.05 95.7581 2.67C95.7581 2.366 95.8161 2.072 95.9321 1.788C96.0521 1.504 96.2241 1.252 96.4481 1.032C96.6761 0.812 96.9541 0.636 97.2821 0.504C97.6141 0.372 97.9941 0.305999 98.4221 0.305999C98.9021 0.305999 99.3381 0.381999 99.7301 0.534C100.126 0.686 100.474 0.906 100.774 1.194L100.492 1.746ZM109.958 1.542C109.922 1.61 109.87 1.644 109.802 1.644C109.75 1.644 109.682 1.608 109.598 1.536C109.518 1.46 109.408 1.378 109.268 1.29C109.128 1.198 108.952 1.114 108.74 1.038C108.532 0.962 108.274 0.924 107.966 0.924C107.658 0.924 107.386 0.967999 107.15 1.056C106.918 1.144 106.722 1.264 106.562 1.416C106.406 1.568 106.286 1.744 106.202 1.944C106.122 2.144 106.082 2.354 106.082 2.574C106.082 2.862 106.142 3.1 106.262 3.288C106.386 3.476 106.548 3.636 106.748 3.768C106.948 3.9 107.174 4.012 107.426 4.104C107.682 4.192 107.944 4.28 108.212 4.368C108.48 4.456 108.74 4.554 108.992 4.662C109.248 4.766 109.476 4.898 109.676 5.058C109.876 5.218 110.036 5.416 110.156 5.652C110.28 5.884 110.342 6.174 110.342 6.522C110.342 6.878 110.28 7.214 110.156 7.53C110.036 7.842 109.86 8.114 109.628 8.346C109.396 8.578 109.112 8.762 108.776 8.898C108.44 9.03 108.056 9.096 107.624 9.096C107.064 9.096 106.582 8.998 106.178 8.802C105.774 8.602 105.42 8.33 105.116 7.986L105.284 7.722C105.332 7.662 105.388 7.632 105.452 7.632C105.488 7.632 105.534 7.656 105.59 7.704C105.646 7.752 105.714 7.812 105.794 7.884C105.874 7.952 105.97 8.028 106.082 8.112C106.194 8.192 106.324 8.268 106.472 8.34C106.62 8.408 106.79 8.466 106.982 8.514C107.174 8.562 107.392 8.586 107.636 8.586C107.972 8.586 108.272 8.536 108.536 8.436C108.8 8.332 109.022 8.192 109.202 8.016C109.386 7.84 109.526 7.632 109.622 7.392C109.718 7.148 109.766 6.888 109.766 6.612C109.766 6.312 109.704 6.066 109.58 5.874C109.46 5.678 109.3 5.516 109.1 5.388C108.9 5.256 108.672 5.146 108.416 5.058C108.164 4.97 107.904 4.884 107.636 4.8C107.368 4.716 107.106 4.622 106.85 4.518C106.598 4.414 106.372 4.282 106.172 4.122C105.972 3.958 105.81 3.756 105.686 3.516C105.566 3.272 105.506 2.968 105.506 2.604C105.506 2.32 105.56 2.046 105.668 1.782C105.776 1.518 105.934 1.286 106.142 1.086C106.35 0.881999 106.606 0.719999 106.91 0.599999C107.218 0.475999 107.568 0.413999 107.96 0.413999C108.4 0.413999 108.794 0.483999 109.142 0.624C109.494 0.764 109.814 0.978 110.102 1.266L109.958 1.542ZM111.85 8.538C111.85 8.462 111.864 8.39 111.892 8.322C111.92 8.254 111.958 8.196 112.006 8.148C112.058 8.096 112.116 8.056 112.18 8.028C112.248 7.996 112.322 7.98 112.402 7.98C112.478 7.98 112.55 7.996 112.618 8.028C112.686 8.056 112.744 8.096 112.792 8.148C112.844 8.196 112.884 8.254 112.912 8.322C112.944 8.39 112.96 8.462 112.96 8.538C112.96 8.618 112.944 8.692 112.912 8.76C112.884 8.824 112.844 8.882 112.792 8.934C112.744 8.982 112.686 9.02 112.618 9.048C112.55 9.076 112.478 9.09 112.402 9.09C112.246 9.09 112.114 9.038 112.006 8.934C111.902 8.826 111.85 8.694 111.85 8.538ZM119.697 8.478V9H115.059V0.51H115.677V8.478H119.697ZM120.721 8.538C120.721 8.462 120.735 8.39 120.763 8.322C120.791 8.254 120.829 8.196 120.877 8.148C120.929 8.096 120.987 8.056 121.051 8.028C121.119 7.996 121.193 7.98 121.273 7.98C121.349 7.98 121.421 7.996 121.489 8.028C121.557 8.056 121.615 8.096 121.663 8.148C121.715 8.196 121.755 8.254 121.783 8.322C121.815 8.39 121.831 8.462 121.831 8.538C121.831 8.618 121.815 8.692 121.783 8.76C121.755 8.824 121.715 8.882 121.663 8.934C121.615 8.982 121.557 9.02 121.489 9.048C121.421 9.076 121.349 9.09 121.273 9.09C121.117 9.09 120.985 9.038 120.877 8.934C120.773 8.826 120.721 8.694 120.721 8.538Z" fill="#002060"/>
</svg>
